<mxfile host="app.diagrams.net" modified="2023-05-21T15:33:53.541Z" agent="Mozilla/5.0 (Macintosh; Intel Mac OS X 10_15_7) AppleWebKit/605.1.15 (KHTML, like Gecko) Version/15.3 Safari/605.1.15" version="21.3.2" etag="6uALOYklUBh_IzjhPdOQ" type="github">
  <diagram name="第 1 页" id="AbkQRG8aPV63W_5Ls1tV">
    <mxGraphModel>
      <root>
        <mxCell id="0" />
        <mxCell id="1" parent="0" />
      </root>
    </mxGraphModel>
  </diagram>
</mxfile>
